<svg xmlns="http://www.w3.org/2000/svg" width="62" height="41" viewBox="0 0 62 41">
  <g id="Laptop" transform="translate(-5 -351)">
    <rect id="Rectangle_3" data-name="Rectangle 3" width="46" height="33" rx="2" transform="translate(13 351)" fill="#363636"/>
    <rect id="Rectangle_4" data-name="Rectangle 4" width="46" height="11" transform="translate(13 381.262) scale(1 0.956)" fill="#fff"/>
    <path id="Polygon_1" data-name="Polygon 1" d="M7.4,2.133a2,2,0,0,1,3.2,0l5,6.667A2,2,0,0,1,14,12H4A2,2,0,0,1,2.4,8.8Z" transform="translate(5 380)" fill="#fff"/>
    <path id="Polygon_2" data-name="Polygon 2" d="M7.4,2.133a2,2,0,0,1,3.2,0l5,6.667A2,2,0,0,1,14,12H4A2,2,0,0,1,2.4,8.8Z" transform="translate(49 380)" fill="#fff"/>
    <rect id="Rectangle_5" data-name="Rectangle 5" width="42" height="28" transform="translate(15 353)" fill="#fff"/>
    <rect id="Rectangle_6" data-name="Rectangle 6" width="42" height="11" transform="translate(15 381)" fill="#fff"/>
    <line id="Line_3" data-name="Line 3" x2="43" transform="translate(14.5 381.5)" fill="none" stroke="#363636" stroke-width="1"/>
    <line id="Line_4" data-name="Line 4" x1="3" y2="5" transform="translate(12.5 382.5)" fill="none" stroke="#707070" stroke-width="0.3"/>
    <line id="Line_5" data-name="Line 5" x1="48" transform="translate(12.5 387.5)" fill="none" stroke="#707070" stroke-width="0.3"/>
    <line id="Line_6" data-name="Line 6" x2="3" y2="5" transform="translate(57.5 382.5)" fill="none" stroke="#707070" stroke-width="0.3"/>
    <line id="Line_7" data-name="Line 7" x1="42" transform="translate(15.5 382.5)" fill="none" stroke="#707070" stroke-width="0.3"/>
    <line id="Line_8" data-name="Line 8" x1="1" y2="5" transform="translate(16.5 382.5)" fill="none" stroke="#707070" stroke-width="0.3"/>
    <line id="Line_9" data-name="Line 9" x1="0.6" y2="5" transform="translate(19.5 382.5)" fill="none" stroke="#707070" stroke-width="0.3"/>
    <line id="Line_10" data-name="Line 10" x1="0.6" y2="5" transform="translate(22.5 382.5)" fill="none" stroke="#707070" stroke-width="0.3"/>
    <line id="Line_11" data-name="Line 11" x1="0.6" y2="5" transform="translate(25.5 382.5)" fill="none" stroke="#707070" stroke-width="0.3"/>
    <line id="Line_12" data-name="Line 12" x1="0.6" y2="5" transform="translate(28.5 382.5)" fill="none" stroke="#707070" stroke-width="0.3"/>
    <line id="Line_13" data-name="Line 13" x1="0.6" y2="5" transform="translate(31.5 382.5)" fill="none" stroke="#707070" stroke-width="0.3"/>
    <line id="Line_14" data-name="Line 14" x2="0.4" y2="5" transform="translate(35.1 382.5)" fill="none" stroke="#707070" stroke-width="0.3"/>
    <line id="Line_15" data-name="Line 15" x2="0.4" y2="5" transform="translate(38.1 382.5)" fill="none" stroke="#707070" stroke-width="0.3"/>
    <line id="Line_16" data-name="Line 16" x2="0.4" y2="5" transform="translate(41.1 382.5)" fill="none" stroke="#707070" stroke-width="0.3"/>
    <line id="Line_17" data-name="Line 17" x2="0.4" y2="5" transform="translate(44.1 382.5)" fill="none" stroke="#707070" stroke-width="0.3"/>
    <line id="Line_18" data-name="Line 18" x2="0.4" y2="5" transform="translate(47.1 382.5)" fill="none" stroke="#707070" stroke-width="0.3"/>
    <line id="Line_19" data-name="Line 19" x2="0.4" y2="5" transform="translate(50.1 382.5)" fill="none" stroke="#707070" stroke-width="0.3"/>
    <line id="Line_20" data-name="Line 20" x2="0.4" y2="5" transform="translate(53.1 382.5)" fill="none" stroke="#707070" stroke-width="0.3"/>
    <line id="Line_21" data-name="Line 21" x2="0.4" y2="5" transform="translate(56.1 382.5)" fill="none" stroke="#707070" stroke-width="0.3"/>
    <line id="Line_22" data-name="Line 22" x1="42" transform="translate(15.5 383.5)" fill="none" stroke="#707070" stroke-width="0.3"/>
    <line id="Line_23" data-name="Line 23" x1="44" transform="translate(14.5 384.5)" fill="none" stroke="#707070" stroke-width="0.3"/>
    <line id="Line_24" data-name="Line 24" x1="44" transform="translate(14.5 385.5)" fill="none" stroke="#707070" stroke-width="0.3"/>
    <line id="Line_25" data-name="Line 25" x1="46" transform="translate(13.5 386.5)" fill="none" stroke="#707070" stroke-width="0.3"/>
    <g id="Path_2" data-name="Path 2" transform="translate(38 387.7)" fill="#fff">
      <path d="M 1.699610829353333 3.891960859298706 L 0.1890898793935776 3.891960859298706 L 0.9443503618240356 0.6593323945999146 L 1.699610829353333 3.891960859298706 Z" stroke="none"/>
      <path d="M 0.9443503618240356 1.318611145019531 L 0.3781670331954956 3.741960763931274 L 1.510533690452576 3.741960763931274 L 0.9443503618240356 1.318611145019531 M 0.9443503618240356 9.5367431640625e-07 L 1.888700366020203 4.041960716247559 L 3.576278686523438e-07 4.041960716247559 L 0.9443503618240356 9.5367431640625e-07 Z" stroke="none" fill="#707070"/>
    </g>
    <g id="Path_3" data-name="Path 3" transform="translate(31.214 387.7)" fill="#fff">
      <path d="M 1.699609756469727 3.891958475112915 L 0.1890888065099716 3.891958475112915 L 0.9443492889404297 0.6593300104141235 L 1.699609756469727 3.891958475112915 Z" stroke="none"/>
      <path d="M 0.9443492889404297 1.31860876083374 L 0.3781659603118896 3.741958379745483 L 1.51053261756897 3.741958379745483 L 0.9443492889404297 1.31860876083374 M 0.9443492889404297 -1.430511474609375e-06 L 1.888699293136597 4.041958332061768 L -7.152557373046875e-07 4.041958332061768 L 0.9443492889404297 -1.430511474609375e-06 Z" stroke="none" fill="#707070"/>
    </g>
    <rect id="Rectangle_7" data-name="Rectangle 7" width="7" height="4" transform="translate(32 387.8)" fill="#fff"/>
    <line id="Line_26" data-name="Line 26" x2="7.5" transform="translate(31.5 391.6)" fill="none" stroke="#707070" stroke-width="0.3"/>
    <line id="Line_27" data-name="Line 27" x2="7" transform="translate(31.9 388.6)" fill="none" stroke="#707070" stroke-width="0.3"/>
  </g>
</svg>
